<svg version="1.1" id="Layer_1" xmlns="http://www.w3.org/2000/svg" xmlns:xlink="http://www.w3.org/1999/xlink" x="0px" y="0px"
     width="35" height="23" viewBox="0 0 1200 1200" enable-background="new 0 0 1200 1200" xml:space="preserve">
<path fill="#FF5D26" opacity="1.000000" stroke="none" 
	d="
M598.000000,1201.000000 
	C399.034576,1201.000000 200.069168,1201.000000 1.051882,1201.000000 
	C1.051882,801.104126 1.051882,401.208221 1.051882,1.000000 
	C199.694595,1.000000 398.389343,1.000000 597.543335,1.455950 
	C598.001709,401.607941 598.000854,801.303955 598.000000,1201.000000 
M377.572998,663.115540 
	C334.228729,689.643677 290.193146,688.905518 246.216629,665.356812 
	C219.015198,650.790955 199.358780,627.983398 182.085190,602.885193 
	C178.752487,598.042847 174.490082,593.484009 169.757294,590.024597 
	C151.403625,576.609192 127.369431,585.140625 122.421516,606.641357 
	C120.088028,616.781128 122.525925,626.452515 128.391617,634.683411 
	C138.804138,649.294556 149.079224,664.154663 160.957596,677.538757 
	C186.055038,705.817566 216.535324,726.728271 252.975739,737.692871 
	C305.987457,753.643616 356.985901,748.765869 405.033234,720.404663 
	C430.321136,705.477783 450.816956,685.136658 468.852600,662.154785 
	C475.442352,653.757812 480.464600,644.798279 481.653809,633.935486 
	C484.012329,612.392639 463.816742,595.910583 443.390442,602.870239 
	C434.080322,606.042358 427.043274,612.273193 421.078827,619.843567 
	C408.475311,635.840698 395.314697,651.270874 377.572998,663.115540 
M347.736481,546.898560 
	C353.390564,548.106201 359.004944,550.093872 364.705719,550.384033 
	C387.193359,551.528381 406.361572,534.188293 408.085022,511.700317 
	C409.782776,489.547607 393.597443,468.860382 372.245239,465.891968 
	C350.352570,462.848450 331.105804,474.666046 324.757355,495.049622 
	C318.312073,515.744080 327.337280,536.635498 347.736481,546.898560 
z"/>
<path fill="#5B77FF" opacity="1.000000" stroke="none" 
	d="
M601.000000,1.000000 
	C800.965332,1.000000 1000.930664,1.000000 1200.947998,1.000000 
	C1200.947998,400.895935 1200.947998,800.791931 1200.947998,1201.000000 
	C1001.305420,1201.000000 801.610657,1201.000000 601.476685,1200.544312 
	C601.039490,983.662781 601.047852,767.236938 601.041687,550.811096 
	C601.036438,367.540741 601.014526,184.270370 601.000000,1.000000 
M1031.111328,532.931030 
	C1031.111328,532.931030 1031.197144,532.887878 1031.123535,532.137695 
	C1029.426880,528.042664 1027.730103,523.947632 1025.862793,519.155090 
	C1021.871155,509.303009 1017.581848,499.557098 1014.014648,489.553680 
	C1012.256409,484.623077 1009.438843,483.128357 1004.500488,482.896973 
	C976.538635,481.586945 950.004272,487.600922 923.861938,497.345520 
	C922.991455,495.569092 922.121033,493.792633 921.095154,491.267151 
	C914.031921,474.028564 906.975830,456.787048 899.903381,439.552246 
	C892.808411,422.262634 875.827576,414.933197 858.510071,422.065521 
	C822.671753,436.825714 786.881409,451.704559 751.150269,466.722229 
	C731.770691,474.867401 725.385681,491.167694 733.454407,510.739471 
	C750.318970,551.646667 767.154114,592.566040 784.023254,633.471313 
	C801.969543,676.988464 819.852661,720.531921 837.948547,763.986755 
	C844.467041,779.640137 861.796021,786.935791 877.354858,780.536926 
	C914.580017,765.227478 951.732788,749.740051 988.828003,734.118286 
	C1003.537170,727.923889 1011.102051,711.380310 1005.590210,696.362732 
	C1000.327820,682.024841 993.916565,668.108643 987.955994,653.265320 
	C986.348450,649.517456 984.740967,645.769592 984.048523,641.975525 
	C1014.091370,642.257874 1042.958618,648.018005 1070.233398,661.544128 
	C1070.511475,660.024536 1070.678467,659.537354 1070.678711,659.049988 
	C1070.697510,624.911987 1070.764160,590.773560 1070.543335,556.637024 
	C1070.531250,554.777283 1068.507690,551.955017 1066.747437,551.241821 
	C1055.987305,546.882080 1045.032837,543.002380 1034.022217,538.347839 
	C1033.516724,537.217773 1033.011230,536.087769 1032.312500,534.320068 
	C1031.898560,533.828003 1031.484741,533.335876 1031.111328,532.931030 
z"/>
<path fill="#F86327" opacity="1.000000" stroke="none" 
	d="
M600.625000,1.000000 
	C601.014526,184.270370 601.036438,367.540741 601.041687,550.811096 
	C601.047852,767.236938 601.039490,983.662781 601.018677,1200.544312 
	C600.250000,1201.000000 599.500000,1201.000000 598.375000,1201.000000 
	C598.000854,801.303955 598.001709,401.607941 598.001282,1.455950 
	C598.750000,1.000000 599.500000,1.000000 600.625000,1.000000 
z"/>
<path fill="#FFFEFD" opacity="1.000000" stroke="none" 
	d="
M377.882843,662.931213 
	C395.314697,651.270874 408.475311,635.840698 421.078827,619.843567 
	C427.043274,612.273193 434.080322,606.042358 443.390442,602.870239 
	C463.816742,595.910583 484.012329,612.392639 481.653809,633.935486 
	C480.464600,644.798279 475.442352,653.757812 468.852600,662.154785 
	C450.816956,685.136658 430.321136,705.477783 405.033234,720.404663 
	C356.985901,748.765869 305.987457,753.643616 252.975739,737.692871 
	C216.535324,726.728271 186.055038,705.817566 160.957596,677.538757 
	C149.079224,664.154663 138.804138,649.294556 128.391617,634.683411 
	C122.525925,626.452515 120.088028,616.781128 122.421516,606.641357 
	C127.369431,585.140625 151.403625,576.609192 169.757294,590.024597 
	C174.490082,593.484009 178.752487,598.042847 182.085190,602.885193 
	C199.358780,627.983398 219.015198,650.790955 246.216629,665.356812 
	C290.193146,688.905518 334.228729,689.643677 377.882843,662.931213 
z"/>
<path fill="#FFFDFC" opacity="1.000000" stroke="none" 
	d="
M347.384247,546.754578 
	C327.337280,536.635498 318.312073,515.744080 324.757355,495.049622 
	C331.105804,474.666046 350.352570,462.848450 372.245239,465.891968 
	C393.597443,468.860382 409.782776,489.547607 408.085022,511.700317 
	C406.361572,534.188293 387.193359,551.528381 364.705719,550.384033 
	C359.004944,550.093872 353.390564,548.106201 347.384247,546.754578 
z"/>
<path fill="#FEFEFF" opacity="1.000000" stroke="none" 
	d="
M1034.143066,538.962646 
	C1045.032837,543.002380 1055.987305,546.882080 1066.747437,551.241821 
	C1068.507690,551.955017 1070.531250,554.777283 1070.543335,556.637024 
	C1070.764160,590.773560 1070.697510,624.911987 1070.678711,659.049988 
	C1070.678467,659.537354 1070.511475,660.024536 1070.233398,661.544128 
	C1042.958618,648.018005 1014.091370,642.257874 983.292603,642.011292 
	C982.338135,642.061157 982.139709,642.075195 981.479614,642.070923 
	C975.556580,642.109070 970.095215,642.165649 964.240173,642.286865 
	C938.645569,644.109741 914.236755,648.975891 891.502869,660.578918 
	C890.705872,660.985596 889.297485,660.194336 888.384521,659.610229 
	C888.694824,649.185486 888.794556,639.111816 888.922607,628.567871 
	C888.971497,604.741699 889.039246,581.385681 888.959534,558.030212 
	C888.948181,554.707886 889.590576,552.153259 893.329102,550.883545 
	C924.130249,536.308105 956.602112,532.100281 989.778503,533.275574 
	C1004.615234,533.801147 1019.357788,536.985107 1034.143066,538.962646 
z"/>
<path fill="#FBFCFE" opacity="1.000000" stroke="none" 
	d="
M988.010376,654.007080 
	C993.916565,668.108643 1000.327820,682.024841 1005.590210,696.362732 
	C1011.102051,711.380310 1003.537170,727.923889 988.828003,734.118286 
	C951.732788,749.740051 914.580017,765.227478 877.354858,780.536926 
	C861.796021,786.935791 844.467041,779.640137 837.948547,763.986755 
	C819.852661,720.531921 801.969543,676.988464 784.023254,633.471313 
	C767.154114,592.566040 750.318970,551.646667 733.454407,510.739471 
	C725.385681,491.167694 731.770691,474.867401 751.150269,466.722229 
	C786.881409,451.704559 822.671753,436.825714 858.510071,422.065521 
	C875.827576,414.933197 892.808411,422.262634 899.903381,439.552246 
	C906.975830,456.787048 914.031921,474.028564 920.753296,491.640320 
	C918.686401,492.413055 916.943542,492.749084 915.239990,493.225677 
	C911.963074,494.142426 908.708313,495.138702 905.269775,495.819885 
	C898.292236,479.088104 891.547546,462.614075 884.664368,446.198090 
	C880.669861,436.671600 873.519470,433.734009 864.093445,437.645844 
	C828.285828,452.506256 792.486206,467.386078 756.707153,482.315063 
	C747.213135,486.276489 744.255737,493.424988 748.120667,502.881744 
	C755.044312,519.822388 762.047546,536.730652 769.022339,553.650391 
	C796.734192,620.875427 824.441345,688.102295 852.167847,755.321289 
	C856.342590,765.442383 863.433350,768.410706 873.369263,764.276794 
	C908.547180,749.640686 943.723389,735.000366 978.895569,720.350403 
	C990.477356,715.526306 993.096680,709.035706 988.311829,697.380249 
	C984.080811,687.073853 979.928894,676.735046 975.931763,666.100830 
	C980.084412,661.863159 984.047424,657.935181 988.010376,654.007080 
z"/>
<path fill="#FDFDFE" opacity="1.000000" stroke="none" 
	d="
M924.244995,497.905273 
	C950.004272,487.600922 976.538635,481.586945 1004.500488,482.896973 
	C1009.438843,483.128357 1012.256409,484.623077 1014.014648,489.553680 
	C1017.581848,499.557098 1021.871155,509.303009 1025.845703,519.858459 
	C1024.838501,521.252869 1023.822998,522.566284 1022.862549,522.527222 
	C1018.727905,522.358887 1014.595581,521.896851 1010.488647,521.345886 
	C1005.719360,520.705933 1000.964600,519.148621 996.226074,519.234619 
	C979.960083,519.529602 963.703918,520.365601 947.444397,521.006836 
	C945.951965,521.065674 944.464050,521.235229 942.971741,521.301392 
	C938.767883,521.487793 934.564087,521.705383 930.357788,521.797668 
	C927.245178,521.866089 924.094299,521.452209 921.021790,521.797974 
	C916.131592,522.348328 911.571106,522.122925 908.391663,517.838318 
	C906.069275,514.708740 904.128418,511.296082 902.263672,507.780090 
	C904.335022,506.701874 906.160095,505.853119 908.269348,504.791016 
	C913.783936,502.353516 919.014465,500.129395 924.244995,497.905273 
M906.355774,510.045441 
	C906.147400,509.711975 905.939026,509.378479 905.730652,509.045013 
	C905.614563,509.138489 905.389282,509.300934 905.398376,509.315308 
	C905.606262,509.644592 905.839661,509.957764 906.355774,510.045441 
z"/>
<path fill="#E7E6ED" opacity="1.000000" stroke="none" 
	d="
M1034.082642,538.655273 
	C1019.357788,536.985107 1004.615234,533.801147 989.778503,533.275574 
	C956.602112,532.100281 924.130249,536.308105 893.218506,550.606567 
	C891.551514,550.301270 890.141724,549.758240 889.186462,550.199402 
	C880.994080,553.982971 872.280457,556.829346 866.707764,564.932983 
	C865.453308,566.757202 861.498108,567.636780 858.925781,567.404541 
	C855.901123,567.131409 855.641785,564.232361 855.643860,561.198547 
	C855.645935,558.190369 854.201721,555.168396 853.311157,552.176514 
	C852.585876,549.740112 851.741394,547.339050 851.117737,544.636780 
	C856.195251,539.951477 861.104736,535.551819 866.289062,531.283936 
	C870.976196,530.507751 873.169678,533.277832 875.268799,536.471619 
	C878.080322,540.749084 879.275024,540.497498 882.333984,536.732178 
	C883.351868,535.479248 886.171509,535.231262 888.140625,535.299316 
	C893.200928,535.474243 898.297119,536.739929 903.284790,536.353455 
	C909.580627,535.865723 915.769104,534.089355 922.031982,533.035461 
	C924.955688,532.543335 927.958191,532.539612 930.902832,532.147827 
	C941.988708,530.672546 953.050293,529.001770 964.153015,527.671875 
	C968.725525,527.124084 973.379272,527.105103 977.995972,527.107239 
	C987.208313,527.111572 996.492371,526.625366 1005.612000,527.601318 
	C1014.230225,528.523621 1022.675720,531.060913 1031.197144,532.887878 
	C1031.197144,532.887878 1031.111328,532.931030 1031.173096,533.208862 
	C1031.658447,533.977112 1032.082031,534.467468 1032.505615,534.957764 
	C1033.011230,536.087769 1033.516724,537.217773 1034.082642,538.655273 
z"/>
<path fill="#F1F1F5" opacity="1.000000" stroke="none" 
	d="
M1031.160400,532.512817 
	C1022.675720,531.060913 1014.230225,528.523621 1005.612000,527.601318 
	C996.492371,526.625366 987.208313,527.111572 977.995972,527.107239 
	C973.379272,527.105103 968.725525,527.124084 964.153015,527.671875 
	C953.050293,529.001770 941.988708,530.672546 930.902832,532.147827 
	C927.958191,532.539612 924.955688,532.543335 922.031982,533.035461 
	C915.769104,534.089355 909.580627,535.865723 903.284790,536.353455 
	C898.297119,536.739929 893.200928,535.474243 888.140625,535.299316 
	C886.171509,535.231262 883.351868,535.479248 882.333984,536.732178 
	C879.275024,540.497498 878.080322,540.749084 875.268799,536.471619 
	C873.169678,533.277832 870.976196,530.507751 866.501648,531.018616 
	C878.298767,523.084229 890.158142,515.546875 902.017517,508.009583 
	C904.128418,511.296082 906.069275,514.708740 908.391663,517.838318 
	C911.571106,522.122925 916.131592,522.348328 921.021790,521.797974 
	C924.094299,521.452209 927.245178,521.866089 930.357788,521.797668 
	C934.564087,521.705383 938.767883,521.487793 942.971741,521.301392 
	C944.464050,521.235229 945.951965,521.065674 947.444397,521.006836 
	C963.703918,520.365601 979.960083,519.529602 996.226074,519.234619 
	C1000.964600,519.148621 1005.719360,520.705933 1010.488647,521.345886 
	C1014.595581,521.896851 1018.727905,522.358887 1022.862549,522.527222 
	C1023.822998,522.566284 1024.838501,521.252869 1025.930908,520.207214 
	C1027.730103,523.947632 1029.426880,528.042664 1031.160400,532.512817 
z"/>
<path fill="#E7E6ED" opacity="1.000000" stroke="none" 
	d="
M987.983154,653.636230 
	C984.047424,657.935181 980.084412,661.863159 975.693970,665.823608 
	C973.748901,661.893250 972.231384,657.930603 971.054810,654.093872 
	C978.463989,654.846680 982.749023,649.917542 981.941345,642.089294 
	C982.139709,642.075195 982.338135,642.061157 982.835083,642.034424 
	C984.740967,645.769592 986.348450,649.517456 987.983154,653.636230 
z"/>
<path fill="#F1F1F5" opacity="1.000000" stroke="none" 
	d="
M924.053467,497.625366 
	C919.014465,500.129395 913.783936,502.353516 908.331909,504.402954 
	C907.221619,501.519501 906.333008,498.810730 905.444397,496.101959 
	C908.708313,495.138702 911.963074,494.142426 915.239990,493.225677 
	C916.943542,492.749084 918.686401,492.413055 920.831055,492.014832 
	C922.121033,493.792633 922.991455,495.569092 924.053467,497.625366 
z"/>
<path fill="#F1F1F5" opacity="1.000000" stroke="none" 
	d="
M1032.409058,534.638916 
	C1032.082031,534.467468 1031.658447,533.977112 1031.152832,533.165283 
	C1031.484741,533.335876 1031.898560,533.828003 1032.409058,534.638916 
z"/>
<path fill="#5C78FE" opacity="1.000000" stroke="none" 
	d="
M905.269775,495.819885 
	C906.333008,498.810730 907.221619,501.519501 908.047729,504.616302 
	C906.160095,505.853119 904.335022,506.701874 902.263672,507.780090 
	C890.158142,515.546875 878.298767,523.084229 866.226807,530.886841 
	C861.104736,535.551819 856.195251,539.951477 850.808716,544.780029 
	C845.670410,549.716736 841.484375,554.260620 846.829346,561.070862 
	C848.008362,562.573120 848.592468,564.568726 849.331848,566.385498 
	C856.342834,583.612915 863.328186,600.850769 870.354858,618.284119 
	C870.507629,618.740356 870.698303,618.922913 870.997070,619.280273 
	C871.105042,619.682251 871.177063,619.834351 871.276978,620.342468 
	C872.549011,623.777649 873.727905,626.885071 875.049011,629.930847 
	C879.396179,639.953064 883.794983,649.952942 888.174011,659.961365 
	C889.297485,660.194336 890.705872,660.985596 891.502869,660.578918 
	C914.236755,648.975891 938.645569,644.109741 964.524231,642.508606 
	C967.039246,646.433044 968.876526,650.200439 970.713806,653.967896 
	C972.231384,657.930603 973.748901,661.893250 975.504272,666.133240 
	C979.928894,676.735046 984.080811,687.073853 988.311829,697.380249 
	C993.096680,709.035706 990.477356,715.526306 978.895569,720.350403 
	C943.723389,735.000366 908.547180,749.640686 873.369263,764.276794 
	C863.433350,768.410706 856.342590,765.442383 852.167847,755.321289 
	C824.441345,688.102295 796.734192,620.875427 769.022339,553.650391 
	C762.047546,536.730652 755.044312,519.822388 748.120667,502.881744 
	C744.255737,493.424988 747.213135,486.276489 756.707153,482.315063 
	C792.486206,467.386078 828.285828,452.506256 864.093445,437.645844 
	C873.519470,433.734009 880.669861,436.671600 884.664368,446.198090 
	C891.547546,462.614075 898.292236,479.088104 905.269775,495.819885 
z"/>
<path fill="#E0DFE8" opacity="1.000000" stroke="none" 
	d="
M871.249023,619.986511 
	C871.177063,619.834351 871.105042,619.682251 870.920471,619.103516 
	C870.680603,618.450867 870.518311,618.253784 870.320923,618.085571 
	C863.328186,600.850769 856.342834,583.612915 849.331848,566.385498 
	C848.592468,564.568726 848.008362,562.573120 846.829346,561.070862 
	C841.484375,554.260620 845.670410,549.716736 850.640625,545.065552 
	C851.741394,547.339050 852.585876,549.740112 853.311157,552.176514 
	C854.201721,555.168396 855.645935,558.190369 855.643860,561.198547 
	C855.641785,564.232361 855.901123,567.131409 858.925781,567.404541 
	C861.498108,567.636780 865.453308,566.757202 866.707764,564.932983 
	C872.280457,556.829346 880.994080,553.982971 889.186462,550.199402 
	C890.141724,549.758240 891.551514,550.301270 892.861206,550.665039 
	C889.590576,552.153259 888.948181,554.707886 888.959534,558.030212 
	C889.039246,581.385681 888.971497,604.741699 888.536865,628.549194 
	C880.833740,629.111877 876.916321,622.911438 871.249023,619.986511 
z"/>
<path fill="#D5D4E3" opacity="1.000000" stroke="none" 
	d="
M871.276978,620.342468 
	C876.916321,622.911438 880.833740,629.111877 888.508606,629.019470 
	C888.794556,639.111816 888.694824,649.185486 888.384521,659.610229 
	C883.794983,649.952942 879.396179,639.953064 875.049011,629.930847 
	C873.727905,626.885071 872.549011,623.777649 871.276978,620.342468 
z"/>
<path fill="#D5D4E3" opacity="1.000000" stroke="none" 
	d="
M971.054810,654.093872 
	C968.876526,650.200439 967.039246,646.433044 964.917908,642.443848 
	C970.095215,642.165649 975.556580,642.109070 981.479614,642.070923 
	C982.749023,649.917542 978.463989,654.846680 971.054810,654.093872 
z"/>
<path fill="#F1F1F5" opacity="1.000000" stroke="none" 
	d="
M906.212036,510.159668 
	C905.839661,509.957764 905.606262,509.644592 905.398376,509.315308 
	C905.389282,509.300934 905.614563,509.138489 905.730652,509.044983 
	C905.939026,509.378479 906.147400,509.711975 906.212036,510.159668 
z"/>
<path fill="#D5D4E3" opacity="1.000000" stroke="none" 
	d="
M870.354919,618.284119 
	C870.518311,618.253784 870.680603,618.450867 870.884399,618.853638 
	C870.698303,618.922913 870.507629,618.740356 870.354919,618.284119 
z"/>
</svg>